<?xml version="1.0" encoding="UTF-8" standalone="no"?>
<svg xmlns="http://www.w3.org/2000/svg" width="1200" height="800" viewBox="0 0 1200 800">
  <defs>
    <linearGradient id="skyGradient" x1="0%" y1="0%" x2="0%" y2="100%">
      <stop offset="0%" style="stop-color:#3a6073;stop-opacity:1" />
      <stop offset="100%" style="stop-color:#16222a;stop-opacity:1" />
    </linearGradient>
  </defs>
  
  <!-- Background -->
  <rect width="1200" height="800" fill="url(#skyGradient)"/>
  
  <!-- Ground -->
  <rect x="0" y="600" width="1200" height="200" fill="#2c3e50"/>
  
  <!-- Main House Shape -->
  <path d="M300,550 L300,350 L500,250 L700,350 L700,550 Z" 
        fill="#ecf0f1" stroke="#34495e" stroke-width="5"/>
  
  <!-- Roof -->
  <path d="M290,350 L500,220 L710,350" 
        fill="none" stroke="#34495e" stroke-width="8"/>
  
  <!-- Windows -->
  <rect x="350" y="400" width="60" height="60" fill="#3498db"/>
  <rect x="450" y="400" width="100" height="60" fill="#3498db"/>
  <rect x="590" y="400" width="60" height="60" fill="#3498db"/>
  
  <!-- Door -->
  <rect x="475" y="480" width="50" height="70" fill="#e67e22"/>
  <circle cx="490" cy="515" r="5" fill="#2c3e50"/>
  
  <!-- Modern Building -->
  <rect x="750" y="350" width="200" height="200" fill="#bdc3c7"/>
  <rect x="750" y="350" width="200" height="10" fill="#34495e"/>
  <rect x="750" y="400" width="200" height="10" fill="#34495e"/>
  <rect x="750" y="450" width="200" height="10" fill="#34495e"/>
  <rect x="750" y="500" width="200" height="10" fill="#34495e"/>
  
  <!-- Windows of Modern Building -->
  <rect x="770" y="360" width="30" height="40" fill="#3498db"/>
  <rect x="820" y="360" width="30" height="40" fill="#3498db"/>
  <rect x="870" y="360" width="30" height="40" fill="#3498db"/>
  <rect x="770" y="410" width="30" height="40" fill="#3498db"/>
  <rect x="820" y="410" width="30" height="40" fill="#3498db"/>
  <rect x="870" y="410" width="30" height="40" fill="#3498db"/>
  <rect x="770" y="460" width="30" height="40" fill="#3498db"/>
  <rect x="820" y="460" width="30" height="40" fill="#3498db"/>
  <rect x="870" y="460" width="30" height="40" fill="#3498db"/>
</svg>